<?xml version="1.0" encoding="UTF-8" standalone="no"?>
<!DOCTYPE svg PUBLIC "-//W3C//DTD SVG 1.1//EN" "http://www.w3.org/Graphics/SVG/1.1/DTD/svg11.dtd">
<svg width="100%" height="100%" viewBox="0 0 81 108" version="1.1" xmlns="http://www.w3.org/2000/svg" xmlns:xlink="http://www.w3.org/1999/xlink" xml:space="preserve" xmlns:serif="http://www.serif.com/" style="fill-rule:evenodd;clip-rule:evenodd;">
    <clipPath id="_clip1">
        <path d="M49.123,4.123L76.123,31.123L76.123,103.123L4.123,103.123L4.123,4.123L49.123,4.123Z"/>
    </clipPath>
    <g clip-path="url(#_clip1)">
        <rect x="4.123" y="4.123" width="72" height="99" style="fill:url(#_Linear2);fill-rule:nonzero;"/>
    </g>
    <path d="M49.123,4.123L76.123,31.123L76.123,103.123L4.123,103.123L4.123,4.123L49.123,4.123Z" style="fill:none;stroke:rgb(113,146,161);stroke-width:2px;"/>
    <clipPath id="_clip3">
        <path d="M44.638,17.207L44.621,17.123C44.626,17.151 44.632,17.179 44.638,17.207ZM44.735,17.687C44.716,17.523 44.672,17.366 44.638,17.207L44.735,17.687ZM44.735,17.687L44.566,17.63C45.02,20.953 43.752,23.143 42.082,24.966C40.655,26.526 38.538,27.944 36.779,29.369C34.687,31.06 31.904,33.261 32.602,36.478C33.278,39.595 36.285,41.661 38.133,43.702L38.27,43.549L38.471,43.588C37.361,41.192 35.398,40.057 35.085,37.268C34.807,34.788 36.118,33.039 37.23,31.851C38.741,30.237 40.835,28.918 42.421,27.111C44.497,24.745 46.981,21.116 44.903,17.63L44.735,17.687ZM48.911,27.958L49.927,27.505C49.557,27.587 49.231,27.763 48.911,27.958ZM39.374,35.462C39.143,37.42 39.929,38.952 40.615,39.978C41.153,40.778 42.105,41.363 42.421,42.461C42.751,43.605 42.412,44.626 42.082,45.395L42.284,45.354L42.421,45.507C43.955,44.366 45.315,42.942 45.017,40.879C44.723,38.845 42.451,37.505 42.196,35.688C42.034,34.547 42.394,33.667 42.76,33.093C44.075,31.03 47.282,29.378 49.08,28.015L48.911,27.958L48.855,27.789C45.227,29.163 39.869,31.27 39.374,35.462ZM38.867,44.209L38.27,43.549C38.425,43.797 38.657,44.024 38.867,44.209ZM52.466,44.718L52.522,44.886L52.466,45.056C54.634,44.99 55.951,46.211 56.078,47.765C56.333,50.896 52.799,52.559 51.111,53.859L51.28,53.916L51.225,54.085C53.699,53.282 57.828,51.678 58.11,48.442C58.309,46.146 56.362,44.488 53.997,44.489C53.5,44.489 52.984,44.562 52.466,44.718ZM51.619,45.112L52.522,44.886C52.482,44.88 52.442,44.878 52.403,44.878C52.119,44.878 51.869,45.015 51.619,45.112ZM31.874,45.134C32.098,45.093 32.323,45.05 32.546,45L31.874,45.134ZM30.852,45.339L31.874,45.134C31.532,45.197 31.191,45.258 30.852,45.339ZM27.298,46.072C26.194,46.468 24.85,46.67 24.364,47.765C25.003,48.641 26.31,48.699 27.523,48.894C32.153,49.633 38.665,49.471 43.211,48.894C45.599,48.591 47.736,48.306 48.855,47.314L48.685,47.258L48.741,47.088C44.127,47.668 38.22,48.461 32.829,48.216C31.005,48.133 28.79,48.148 27.975,47.088C28.565,46.173 29.92,46.023 30.909,45.507L30.852,45.339L30.909,45.169C29.609,45.205 28.39,45.679 27.298,46.072ZM42.057,45.615C42.146,45.54 42.236,45.467 42.284,45.354L42.057,45.615ZM41.856,45.846L42.057,45.615C41.979,45.682 41.902,45.749 41.856,45.846ZM48.96,47.166L49.193,47.088C49.11,47.099 49.035,47.132 48.96,47.166ZM48.685,47.258C48.785,47.247 48.873,47.206 48.96,47.166L48.685,47.258ZM30.581,51.141C30.657,51.107 30.73,51.073 30.74,50.981L30.581,51.141ZM30.401,51.32L30.581,51.141C30.498,51.177 30.413,51.213 30.401,51.32ZM28.427,52.731C28.492,53.681 30.416,54.075 31.474,54.31C36.445,55.418 43.772,54.675 47.5,53.52L47.444,53.313L47.613,53.182C47.206,53.116 46.634,52.272 45.92,52.166C45.185,52.057 43.776,52.563 42.421,52.731C40.348,52.986 38.064,53.169 35.876,53.069C34.236,52.995 29.742,53 30.57,51.263L30.401,51.32L30.344,51.151C29.604,51.516 28.361,51.793 28.427,52.731ZM47.702,53.296L47.725,53.295C47.717,53.295 47.71,53.296 47.702,53.296ZM47.444,53.313C47.549,53.319 47.627,53.302 47.702,53.296L47.444,53.313ZM50.378,54.254C50.7,54.241 50.983,54.034 51.28,53.916L50.378,54.254ZM31.642,56.849C31.78,56.768 31.799,56.7 31.868,56.624L31.642,56.849ZM30.007,58.147C30.045,58.992 31.59,59.555 32.489,59.841C36.934,61.25 43.883,60.354 47.048,58.937C46.761,58.578 46.256,58.363 45.807,58.147C45.33,57.919 44.808,57.731 44.339,57.47C41.639,58.204 37.467,58.398 34.295,58.035C33.393,57.932 32.005,57.897 31.812,56.906L31.642,56.849L31.699,56.681C30.902,56.988 29.964,57.221 30.007,58.147ZM22.67,61.195C21.637,61.631 20.401,62.098 20.187,63.226C20.989,64.295 22.586,64.367 24.025,64.581C32.933,65.907 45.041,66.133 52.691,63.565C54.06,63.106 56.77,62.153 55.514,60.969L55.457,61.138L55.288,61.082C55.105,62.421 53.576,62.62 52.466,62.888C51.216,63.191 49.845,63.395 48.515,63.565C41.952,64.409 33.15,64.752 26.734,63.565C25.489,63.335 23.833,63.09 23.459,62.099C24.07,61.127 25.485,60.962 26.621,60.518L26.564,60.348L26.621,60.179C25.028,60.267 23.861,60.693 22.67,61.195ZM26.893,60.335L27.975,60.291C27.898,60.286 27.821,60.284 27.745,60.284C27.459,60.284 27.177,60.316 26.893,60.335ZM26.564,60.348C26.674,60.347 26.784,60.342 26.893,60.335L26.564,60.348ZM55.457,61.138C55.409,61.056 55.374,60.971 55.326,60.929C55.294,60.924 55.263,60.919 55.231,60.912L55.457,61.138ZM57.504,64.105C57.671,63.964 57.833,63.812 57.939,63.621L57.504,64.105ZM30.007,66.951L30.063,67.121L30.007,67.291C34.053,67.995 39.345,68.17 44.339,67.854C49.277,67.542 55.355,66.905 57.657,64.242L57.504,64.105L57.545,63.904C50.765,67.275 39.818,67.661 30.007,66.951ZM30.063,67.121L27.806,66.67C28.498,66.968 29.317,67.006 30.063,67.121Z"/>
    </clipPath>
    <g clip-path="url(#_clip3)">
        <rect x="20.187" y="17.123" width="38.122" height="51.047" style="fill:url(#_Linear4);fill-rule:nonzero;"/>
    </g>
    <clipPath id="_clip5">
        <path d="M49.123,31.122L76.123,31.122L49.123,4.122L49.123,31.122Z"/>
    </clipPath>
    <g clip-path="url(#_clip5)">
        <path d="M35.623,17.622L49.123,4.122L76.123,31.122L62.623,44.622L35.623,17.622Z" style="fill:url(#_Linear6);fill-rule:nonzero;"/>
    </g>
    <path d="M49.123,4.123L76.123,31.123L49.123,31.123L49.123,4.123Z" style="fill:none;stroke:rgb(113,146,161);stroke-width:2px;stroke-linejoin:bevel;"/>
    <g transform="matrix(1,0,0,1,12.123,94.123)">
        <text x="0px" y="0px" style="font-family:'Arial-BoldMT', 'Arial', sans-serif;font-weight:700;font-size:28px;fill:rgb(76,108,123);">JAR</text>
    </g>
    <defs>
        <linearGradient id="_Linear2" x1="0" y1="0" x2="1" y2="0" gradientUnits="userSpaceOnUse" gradientTransform="matrix(-4.3e-06,-99,99,-4.3e-06,40.1231,103.123)"><stop offset="0" style="stop-color:rgb(200,212,219);stop-opacity:1"/><stop offset="1" style="stop-color:white;stop-opacity:1"/></linearGradient>
        <linearGradient id="_Linear4" x1="0" y1="0" x2="1" y2="0" gradientUnits="userSpaceOnUse" gradientTransform="matrix(-2.2e-06,-50.8828,50.8828,-2.2e-06,39.1558,68.0059)"><stop offset="0" style="stop-color:rgb(173,204,220);stop-opacity:1"/><stop offset="1" style="stop-color:rgb(76,108,123);stop-opacity:1"/></linearGradient>
        <linearGradient id="_Linear6" x1="0" y1="0" x2="1" y2="0" gradientUnits="userSpaceOnUse" gradientTransform="matrix(13.4999,-13.4999,13.4999,13.4999,49.1236,31.1236)"><stop offset="0" style="stop-color:white;stop-opacity:1"/><stop offset="0.81" style="stop-color:rgb(197,209,216);stop-opacity:1"/><stop offset="1" style="stop-color:rgb(146,166,177);stop-opacity:1"/></linearGradient>
    </defs>
</svg>
